<?xml version="1.0" encoding="utf-8"?>
<!-- Generator: Adobe Illustrator 19.1.0, SVG Export Plug-In . SVG Version: 6.00 Build 0)  -->
<!DOCTYPE svg PUBLIC "-//W3C//DTD SVG 1.1//EN" "http://www.w3.org/Graphics/SVG/1.1/DTD/svg11.dtd">
<svg version="1.1" id="Layer_1" xmlns="http://www.w3.org/2000/svg" xmlns:xlink="http://www.w3.org/1999/xlink" x="0px" y="0px"
	 viewBox="-113 362.9 360.1 68.3" style="enable-background:new -113 362.9 360.1 68.3;" xml:space="preserve">
<style type="text/css">
	.st0{fill:#4F2683;}
	.st1{fill:#808285;}
	.st2{fill:#A7A9AC;}
</style>
<g>
	<path class="st0" d="M20.5,399.1c1.7,0,3-1.7,3-3.3c0-1.2-0.9-2.4-2.2-2.4c-1.7,0-2.9,1.7-2.9,3.3C18.4,398,19.2,399.1,20.5,399.1"
		/>
	<path class="st0" d="M53.9,412.2c-0.9,0-1.5,1-1.9,1.6c-2.5,4.2-8.3,8-13.5,8c-2.9,0-4-1.7-4-4.5c0-0.9,0.1-1.7,0.3-2.6
		c3.8-1.4,9.7-8,9.7-12.1c0-2.2-1.2-3.7-3.5-3.7c-5.9,0-10.1,9.2-11.1,15.2c-2.3,3.4-6.1,8.2-8.9,8.2c-2.1,0-2.2-4.2-2.2-5.7
		c0-1.9,0.2-3.7,0.6-5.5c0.4-1.9,1.9-4.9,1.9-6.6c0-1-0.5-1.4-1.4-1.4c-2.6,0-3.7,1.7-4.5,4c-0.5,1.7-1,3.9-1.2,5.9
		c-1.7,3-5.1,7.4-7.9,7.4c-1.9,0-2-2.3-2-3.7V408c0-1.8-0.1-6-2.5-6C-1.4,402-9,413.1-9,413.1c0.3-2.4,0.8-4.9,1.7-7.2
		c0.7-2,1.6-4.5,1.6-6.7c0-1.3-0.4-2.1-1.9-2.1c-1.6,0-3.3,1.5-3.6,3c-0.4,1.9-0.7,3.9-1.1,5.9c-0.5,2.2-1,4.6-1.5,7
		c-1.7,3-5.1,7.6-8,7.6c-1.9,0-2-2.3-2-3.7v-8.7c0-1.8-0.1-6-2.5-6c-3.2,0-10.8,11.1-10.8,11.1c0.3-2.4,0.8-4.9,1.7-7.2
		c0.7-2,1.6-4.5,1.6-6.7c0-1.3-0.4-2.1-1.9-2.1c-1.6,0-3.3,1.5-3.6,3c-0.4,1.9-0.7,3.9-1.1,5.9c-0.4,1.9-0.8,3.8-1.2,5.8
		c-2.1,2.7-7.3,8.5-11.6,8.5c-5.7,0-7.7-18.9-7.8-19.1v-0.2l-0.2-1.2c3.1,0.1,5.8,0.4,7.4,0.8c0.7,0.2,1.8,0.5,2.5-0.1
		c0.3-0.3,0.5-0.8,0.2-1.1c-0.6-0.6-0.9-0.7-1.7-1c-1.9-0.6-5.1-1-8.6-1.2v-0.2c-0.5-4.7-0.5-9.4-0.5-13.7
		c-0.1-10.5,0.4-15.5,0.6-17.4c0-0.5,0.1-0.8,0.1-0.9c0-0.9-0.5-2.3-1.6-2.3c-1.9,0-7,1.8-7,4c0,3-0.6,5.7-1.9,9
		c-0.6,1.5-1.4,3.6-2.4,6.1c-1.9,5-3.7,9.9-6.8,16.8c-14.6,2.1-22.2,8-23.2,8.8c-0.2,0.1-0.4,0.3-0.6,0.5
		c-4.9,4.1-10.4,10.4-7.5,18.1c1.5,3.9,3.8,5.1,8.2,5c1.6,0,14.4-0.8,25.6-30.5c2.5-0.3,6.3-0.6,10.3-0.7v0.3l0.3,1.6v0.2
		c2.2,15,6.9,22.6,13.9,22.6c3.6,0,7.7-3.1,10.9-6.7c-0.3,2.3-0.5,4.6-0.5,6.8c0,0.8,0.4,1.6,1.3,1.6c1.2,0,2.1-1,2.6-2
		c1.4-3.1,2.9-6.2,4.7-9.1c1.5-2.4,3.4-5.3,5.4-7.3c0.3-0.3,1-1,1.4-1c0.5,0,0.6,0.9,0.6,1.2l-0.2,7.1c0,0.3,0,0.6,0,0.9
		c0,3.1,0.7,7.3,4.5,7.3c2.8,0,5.9-2.4,8.3-5.2c-0.3,2.2-0.5,4.4-0.5,6.5c0,0.8,0.4,1.6,1.3,1.6c1.2,0,2.1-1,2.6-2
		c1.4-3.1,2.9-6.2,4.7-9.1c1.5-2.4,3.4-5.3,5.4-7.3c0.3-0.3,1-1,1.4-1c0.5,0,0.6,0.9,0.6,1.2l-0.2,7.1c0,0.3,0,0.6,0,0.9
		c0,3.1,0.7,7.3,4.5,7.3c3.2,0,6.7-3.1,9.2-6.3c0.3,3.7,1.6,8.2,5.6,8.2c3.4,0,7.4-4,10.1-7.3c0.5,3.7,2.5,6.7,6.8,6.7
		c6.8,0,14.4-4.3,17.6-10c0.4-0.7,0.6-1.1,0.6-1.9C54.8,412.5,54.3,412.2,53.9,412.2 M40.6,401.7c0.8,0,1.1,0.7,1.1,1.4
		c0,3.3-4,7.5-6.7,9.2C35.3,410.1,38.1,401.7,40.6,401.7z M-103.9,426.8c-2.8,0.4-4.9-0.6-5.5-3.5c-1.1-5.1,2.4-10.1,6-13.4
		c0.1-0.1,0.6-0.5,0.7-0.6c0.1-0.1,7-5.8,20.7-8.1C-94.7,427.3-103.1,426.7-103.9,426.8z M-77.2,398.2c1.5-3.3,2.8-6.7,4.1-10
		c0.1-0.2,0.3-0.8,0.5-1.4c1.6-4.5,2-5.3,2.4-5.3c0.3,0,0.5,0.5,0.6,0.7c0.1,1.7,0.5,5.6,0.5,6.1c0.2,3.1,0.5,6.2,0.8,9.1
		C-71.5,397.5-74.6,397.8-77.2,398.2z"/>
	<path class="st0" d="M51.8,397.1c2.3,0,5.7-6.7,6-8.7c0.1-0.5,0.1-1.1,0.1-1.6c0-1.3-0.9-2-2.1-2c-1.4,0-2.6,1.3-2.6,2.7
		c0,0.9,0.3,1.7,0.3,2.6c0,3.5-2.3,5.9-2.3,6.5C51.3,396.9,51.4,397.1,51.8,397.1"/>
	<path class="st0" d="M65.7,402.8c0.7-1.9,1.1-2.6,1.1-4.7c0-1.2-0.4-3.4-2-3.4c-3,0-4.3,3.4-4.3,5.8c0,1.1,0.2,2.2,0.6,3.3l0.2,0.8
		l-1.6,1.5c-0.4,0.5-0.8,0.9-0.3,1.5c0,0,0.5,0.5,1.1,0.1c0.8-0.5,1.5-0.6,1.9-0.9c1.1,2.1,4.6,7.7,4.6,11.5c0,3.2-1.7,5.4-5,5.4
		c-1.6,0-3.1-0.2-4.4-1.2c0.1,0.1-0.6-0.4-1.1-0.4c-0.6,0-1,0.3-1,0.9c0,0.6,0.3,1,0.7,1.4c1.8,1.7,5,2,7.3,2.1c4.5,0.1,6.7-4,6.7-4
		c1-1.4,1.4-3.1,1.4-4.8C71.5,412.4,67.6,407.6,65.7,402.8"/>
	<path class="st1" d="M76.7,395.7c0,1.5-1.2,2.7-2.7,2.7s-2.8-1.2-2.8-2.7s1.2-2.7,2.8-2.7C75.5,393,76.7,394.2,76.7,395.7
		 M71.9,395.7c0,1.2,0.9,2.1,2.1,2.1c1.2,0,2-0.9,2-2.1c0-1.2-0.9-2.2-2.1-2.2C72.8,393.5,71.9,394.5,71.9,395.7z M73.6,397.1H73
		v-2.7c0.2,0,0.6-0.1,1-0.1c0.5,0,0.7,0.1,0.9,0.2s0.3,0.3,0.3,0.6c0,0.3-0.2,0.5-0.6,0.6l0,0c0.3,0.1,0.4,0.3,0.5,0.7
		s0.1,0.6,0.2,0.7h-0.7c-0.1-0.1-0.1-0.3-0.2-0.7c0-0.3-0.2-0.4-0.6-0.4h-0.3v1.1H73.6z M73.6,395.6h0.3c0.3,0,0.6-0.1,0.6-0.4
		c0-0.2-0.2-0.4-0.6-0.4c-0.2,0-0.3,0-0.3,0V395.6z"/>
	<g>
		<path class="st2" d="M94,403.4c1.9-2,4.2-2.8,6.2-3.3c1.5-0.4,3.8-0.7,5.3-0.7s3.4,0.4,4.2,0.7c0.5,0.1,0.8,0,1.4-0.3
			c0.1,0,0.1,0,0.4,0.1c0.4,0.2,0.4,0.2,0.4,0.2c-0.7,1.7-0.8,3.4-0.6,5.3c0,0.1-0.4,0.1-0.6,0.1c-0.5,0.1-0.5,0.1-0.6-0.1
			c-0.1-0.5-0.4-1.5-0.6-2.2c-0.2-0.6-0.4-1-0.9-1.4c-0.7-0.4-2.4-1.1-4.8-1.1c-2.6,0-5,1-6.9,3.2c-1.6,2-2.5,4.8-2.5,7.8
			c0,3.8,2.2,10.2,10.2,10.2c2.3,0,4-1,5.1-2.3c0.7-0.7,1.1-1.4,1.4-2c0.1-0.2,0.2-0.2,0.4,0c0.3,0.2,0.4,0.4,0.4,0.6
			c-0.4,1.5-1.2,3.4-1.7,4.2c-0.2,0.3-0.3,0.4-0.7,0.4c-1.1,0-3.2,0.6-5.6,0.6c-9.3,0-13.1-6.3-13.1-11.8
			C91,409.2,91.6,406,94,403.4z"/>
		<path class="st2" d="M114.9,421.7c0.8-0.3,1-0.4,1.1-0.9c0.1-0.4,0.1-1.2,0.1-4.5V413c0-1-0.1-1.1-1.4-1.5
			c-0.3-0.1-0.4-0.6-0.4-0.9c1.3-0.9,2.5-1.6,3.7-2.4c0.1-0.1,0.3-0.2,0.4-0.2c0.2,0.1,0.3,0.3,0.3,0.7c-0.1,0.8-0.2,1.8-0.1,2.5
			c0.8-0.3,3.1-2.1,3.5-2.3c0.4-0.2,0.8-0.5,1.1-0.5c0.8,0,1.9,0.9,1.9,1.6c0,0.5-0.8,1.4-1.2,1.8c-0.2,0.1-0.4,0.2-0.6,0.2
			c-0.2,0-0.3,0-0.4-0.2c-0.3-0.3-0.8-0.8-1.5-0.8s-1.8,0.8-2.3,1.3c-0.4,0.4-0.4,0.8-0.4,2.6v4.6c0,0.9,0,1.2,0.1,1.4
			c0.1,0.2,0.2,0.2,0.7,0.2l2-0.1c0.1,0,0.3,0.2,0.3,0.4l-0.2,1.1h-4.8c-0.8,0-1.7,0.1-1.9,0.1s-0.3-0.1-0.2-0.3L114.9,421.7z"/>
		<path class="st2" d="M128.2,412.8c-0.2,0-0.4,0.1-0.6,0.1c-0.1,0-0.5-0.3-0.5-0.4c0-0.2,0.1-0.5,0.3-0.8c0.6-1,3.3-2.6,4.3-3
			c0.8-0.3,1.3-0.4,1.9-0.4c1.7,0,2.4,0.7,3,1.2c0.6,0.6,0.7,1.4,0.7,1.8c0,2.5-0.1,5.1-0.1,7.6c0,1.9,0.3,2.6,0.9,2.6
			c0.5,0,1.8-0.6,1.9-0.6s0.3,0.2,0.3,0.3l-0.1,0.8c0,0.1-0.1,0.2-0.2,0.3c-0.4,0.3-2.8,1-3.9,1c-0.7,0-1.2-0.4-1.5-1.9
			c-1.4,0.6-4.2,1.8-4.8,1.8c-0.4,0-1.2-0.1-2.1-0.8c-0.6-0.5-1.1-1.4-1.1-2.8c0-1,0.6-1.5,1.5-2.1c2-1.1,4.2-1.6,6.6-2
			c0.1-0.7,0.1-1.7,0.1-2.4c0-1.4-0.3-2.3-0.6-2.6c-0.3-0.2-1.2-0.5-2.3-0.5c-0.7,0-1.2,0.2-1.4,0.3c-0.1,0.1-0.3,0.2-0.3,1.4
			c0,0.3,0,0.4-0.2,0.4L128.2,412.8z M133.8,420.6c0.5-0.3,0.9-0.6,0.9-1c0.1-0.4,0.1-2,0.1-2.4c0-0.2-0.1-0.4-0.2-0.4
			c-2.3,0.4-3.7,0.8-4.6,1.4c-0.2,0.1-0.4,0.4-0.4,1.1c0,1.4,0.6,2,1.8,2C131.7,421.4,132.9,421,133.8,420.6z"/>
		<path class="st2" d="M150.4,410.8c-0.6,0-1.5,0-3.1,0c-0.2,0-0.3,0.1-0.3,1.9v6.4c0,2.2,0.2,2.3,0.5,2.3s1.8-0.1,2.1-0.1
			c0.1,0,0.2,0.1,0.2,0.9c0,0.7,0,0.7-0.4,0.7h-3.7c-0.8,0-2.6,0.2-3,0.2c-0.3,0-0.3,0-0.3-0.2c0.1-0.9,0.2-0.9,0.4-1
			c1.8-0.5,1.8-0.5,1.8-4.3v-6.1c0-0.6-0.1-0.7-0.9-0.8l-0.9-0.1c-0.1,0-0.3-0.2-0.3-0.3l0.3-0.6c0.1-0.3,0.2-0.3,0.4-0.4
			c0.1-0.1,1-0.2,1.4-0.3v-1.2c0-2.8,0.3-4.8,2.1-6.5c0.9-0.9,2.3-1.9,3.9-2.4c0.8-0.3,1.5-0.4,2-0.4c1,0,2.3,0.5,2.7,1.2
			c0.1,0.1,0.1,0.3,0.1,0.5c0,0.4-0.5,1.1-0.9,1.4c-0.1,0.1-0.3,0.1-0.5,0.1c-0.4,0-0.7-0.2-1.5-0.7c-0.9-0.5-1.3-0.7-2-0.7
			c-0.6,0-1.3,0.3-1.8,0.8c-1,1-1.5,2.7-1.5,7.4c0,0.3,0.2,0.5,0.4,0.5c1.3,0,3.6-0.2,3.7-0.2c0.2,0,0.5,0.3,0.5,0.4
			c0.1,0.2,0.1,1.1,0.1,1.2c0,0.2-0.1,0.3-0.4,0.3L150.4,410.8L150.4,410.8z"/>
		<path class="st2" d="M158.5,406.3c0,0.4-0.1,2.4-0.1,2.7c1.7,0,3.8-0.2,5.2-0.2c0.4,0,0.4,0,0.4,0.4c0,0.4-0.1,0.7-0.2,1.1
			c-0.1,0.5-0.3,0.5-0.6,0.5c-1.1,0-2.8,0-4.8,0.1c-0.1,0-0.1,0-0.1,0.5c-0.2,1.4-0.2,5.4-0.2,7.5c0,1.6,1.1,2.4,2.8,2.4
			c0.9,0,1.5-0.2,2.3-0.8c0.1-0.1,0.3-0.1,0.3,0c0.1,0.2,0.1,0.5,0.1,0.7c0,0.2-0.1,0.3-0.4,0.4c-1.3,0.8-2.8,1.6-4.4,1.6
			c-0.6,0-2-0.3-2.7-1.2c-0.5-0.6-0.6-1.2-0.5-2.7c0.1-1.8,0.1-6.9,0.2-7.9c0-0.2-0.2-0.5-0.4-0.5c-0.5,0-1.3,0-1.5,0
			c-0.1,0-0.3-0.3-0.2-0.4c1.5-1.3,3.7-3.5,4.4-4.2c0.1-0.2,0.3-0.2,0.3-0.2C158.5,406.2,158.5,406.3,158.5,406.3z"/>
		<path class="st2" d="M175.1,423.3c-0.1-0.2-0.2-0.7-0.2-1.2c-0.1-1.8-0.3-3.5-0.6-5.2c-0.1-0.2,0-0.3,0.1-0.3
			c0.2,0,0.6-0.1,0.8-0.1c0.2,0,0.2,0,0.3,0.4c0.2,0.6,0.4,1.4,1,2.3c1.1,1.5,3.4,2.8,5.8,2.8c3.2,0,5.4-2,5.4-4.8
			c0-1.3-0.6-2.2-1.6-3c-0.7-0.6-1.5-1-4.4-2.1c-2.6-1-4.2-1.8-5.3-3.1c-0.7-0.8-1.3-2.2-1.3-3.3c0-2.6,1.2-4,2.9-5
			c0.8-0.5,2.9-1.2,5.2-1.2c1.1,0,2.7,0.2,3.3,0.3c0.6,0.1,0.8,0.1,0.9,0.1c0.3,0,0.6-0.3,0.9-0.7c0.3,0,0.8,0,0.9,0
			c-0.1,1.9,0,3.5,0.3,5.4c0,0.2,0,0.3-0.1,0.4c-0.1,0.1-0.5,0.3-0.9,0.4c-0.2,0-0.2,0-0.2-0.2c-0.4-1.2-0.6-2.4-1.6-3.2
			c-0.8-0.6-2.3-1.2-4.3-1.2c-2.8,0-4.5,1.6-4.5,3.9c0,1,0.4,1.8,1,2.5c0.8,0.9,1.9,1.4,4.6,2.5c2.5,1,4.1,1.7,5.3,2.9
			c1.3,1.2,1.8,2.5,1.8,4.1c0,2.6-1.3,4.4-3.1,5.4c-1.7,0.9-4.7,1.2-5.9,1.2c-1.7,0-3.2-0.2-4.6-0.5c-0.2-0.1-0.4,0-0.6,0
			c-0.2,0.1-0.5,0.3-0.8,0.4c-0.2,0.2-0.3,0.2-0.5,0.2C175.3,423.6,175.3,423.6,175.1,423.3z"/>
		<path class="st2" d="M197.8,406.3c0,0.4-0.1,2.4-0.1,2.7c1.7,0,3.8-0.2,5.2-0.2c0.4,0,0.4,0,0.4,0.4c0,0.4-0.1,0.7-0.2,1.1
			c-0.1,0.5-0.3,0.5-0.6,0.5c-1.1,0-2.8,0-4.8,0.1c-0.1,0-0.1,0-0.1,0.5c-0.2,1.4-0.2,5.4-0.2,7.5c0,1.6,1.1,2.4,2.8,2.4
			c0.9,0,1.5-0.2,2.3-0.8c0.1-0.1,0.3-0.1,0.3,0c0.1,0.2,0.1,0.5,0.1,0.7c0,0.2-0.1,0.3-0.4,0.4c-1.3,0.8-2.8,1.6-4.4,1.6
			c-0.6,0-2-0.3-2.7-1.2c-0.5-0.6-0.6-1.2-0.5-2.7c0.1-1.8,0.1-6.9,0.2-7.9c0-0.2-0.2-0.5-0.4-0.5c-0.5,0-1.3,0-1.5,0
			c-0.1,0-0.3-0.3-0.2-0.4c1.5-1.3,3.7-3.5,4.4-4.2c0.1-0.2,0.3-0.2,0.3-0.2C197.8,406.2,197.8,406.3,197.8,406.3z"/>
		<path class="st2" d="M219.6,415.7c0,3.7-2.3,5.6-2.8,5.9c-1.6,1-3.2,1.6-4.9,1.6c-1.2,0-4.1-0.8-5.4-2.6c-1.2-1.5-1.6-3.5-1.6-4.7
			c0-1.4,0.5-3.3,1.4-4.4c0.8-1.1,1.4-1.6,2.4-2.1c1.2-0.6,3-1.1,4.2-1.1C215.3,408.3,219.6,410.7,219.6,415.7z M209.4,410.6
			c-1.1,1.2-1.5,2.5-1.5,5c0,2.3,1,3.7,1.8,4.6c1.3,1.4,2.6,1.7,3.6,1.7c0.4,0,1.3-0.2,1.9-0.7c0.9-0.9,1.6-2.2,1.6-4.3
			c0-2.2-0.7-4.5-2.2-5.9c-0.7-0.6-2-1.2-3.2-1.2C210.8,409.7,210,410,209.4,410.6z"/>
		<path class="st2" d="M222.7,421.7c0.8-0.3,1-0.4,1.1-0.9c0.1-0.4,0.1-1.2,0.1-4.5V413c0-1-0.1-1.1-1.4-1.5
			c-0.3-0.1-0.4-0.6-0.4-0.9c1.3-0.9,2.5-1.6,3.7-2.4c0.1-0.1,0.3-0.2,0.4-0.2c0.2,0.1,0.3,0.3,0.3,0.7c-0.1,0.8-0.2,1.8-0.1,2.5
			c0.8-0.3,3.1-2.1,3.5-2.3c0.4-0.2,0.8-0.5,1.1-0.5c0.8,0,1.9,0.9,1.9,1.6c0,0.5-0.8,1.4-1.2,1.8c-0.2,0.1-0.4,0.2-0.6,0.2
			s-0.3,0-0.4-0.2c-0.3-0.3-0.8-0.8-1.5-0.8s-1.8,0.8-2.3,1.3c-0.4,0.4-0.4,0.8-0.4,2.6v4.6c0,0.9,0,1.2,0.1,1.4
			c0.1,0.2,0.2,0.2,0.7,0.2l2-0.1c0.1,0,0.3,0.2,0.3,0.4l-0.2,1.1h-4.8c-0.8,0-1.7,0.1-1.9,0.1c-0.2,0-0.3-0.1-0.2-0.3L222.7,421.7z
			"/>
		<path class="st2" d="M244.3,409.5c0.7,0.7,1.1,1.4,1.4,2.5c0.4-0.1,1.1-0.2,1.3-0.1c0.1,0.1,0.1,0.2,0,0.3
			c-0.1,0.4-0.3,1.1-0.7,1.2c-2.5,0.7-7.4,1.5-8.9,2c-0.2,0.1-0.4,0.3-0.4,0.7c0.1,3.6,2.2,5,4.5,5c1.7,0,3.2-0.7,4.5-1.8
			c0.1-0.2,0.6-0.1,0.5,0c0,1-0.1,1.1-0.3,1.4c-1.6,1.3-3.3,2.1-4.6,2.4c-0.5,0.1-1,0.2-1.3,0.2c-2.5,0-4.2-1.6-4.6-2
			c-0.5-0.6-1.6-2.2-1.6-4.6c0-3.2,1.9-5.7,3.8-7.1c0.9-0.7,2.2-1.2,3.3-1.2C242.5,408.3,243.7,409,244.3,409.5z M239.9,409.7
			c-0.3,0-0.7,0.1-1,0.3c-1.1,0.8-1.8,2.4-1.8,4.2c1.8-0.4,3.6-0.7,5.4-1.2c0.3,0,0.4-0.1,0.4-0.5
			C243,411.5,241.7,409.7,239.9,409.7z"/>
	</g>
</g>
</svg>
