<?xml version="1.0" standalone="no"?>
<!DOCTYPE svg PUBLIC "-//W3C//DTD SVG 20010904//EN"
 "http://www.w3.org/TR/2001/REC-SVG-20010904/DTD/svg10.dtd">
<svg version="1.0" xmlns="http://www.w3.org/2000/svg"
 width="536.000000pt" height="294.000000pt" viewBox="0 0 536.000000 294.000000"
 preserveAspectRatio="xMidYMid meet">

<g transform="translate(0.000000,294.000000) scale(0.100000,-0.100000)"
fill="#000000" stroke="none">
<path d="M584 2778 c-48 -55 -48 -53 -3 -88 l41 -33 36 36 36 37 -34 35 c-40
41 -50 43 -76 13z m46 -3 c0 -8 -7 -15 -15 -15 -8 0 -15 7 -15 15 0 8 7 15 15
15 8 0 15 -7 15 -15z m-48 -57 c-15 -15 -26 -4 -18 18 5 13 9 15 18 6 9 -9 9
-15 0 -24z m43 2 c-5 -8 -11 -8 -17 -2 -6 6 -7 16 -3 22 5 8 11 8 17 2 6 -6 7
-16 3 -22z m50 21 c7 -12 -12 -24 -25 -16 -11 7 -4 25 10 25 5 0 11 -4 15 -9z
m-45 -57 c0 -17 -22 -14 -28 4 -2 7 3 12 12 12 9 0 16 -7 16 -16z"/>
<path d="M4987 2745 c-4 -26 -7 -634 -7 -1351 l0 -1304 -2300 0 -2300 0 -2
313 c0 171 -2 317 -3 322 -2 6 -4 35 -5 65 l-2 55 -18 -80 c-10 -44 -28 -102
-39 -128 -12 -27 -18 -53 -15 -59 3 -5 -1 -17 -9 -26 -9 -9 -19 -30 -23 -47
-4 -16 -10 -34 -13 -40 -3 -5 -6 -41 -6 -80 0 -52 -6 -81 -22 -116 -13 -25
-23 -53 -23 -62 0 -9 -4 -17 -10 -17 -5 0 -12 -11 -16 -25 -3 -13 -12 -29 -20
-36 -8 -6 -14 -20 -14 -31 0 -11 -11 -29 -25 -40 -25 -20 -35 -45 -12 -32 8 5
8 2 -2 -9 -13 -16 2 -17 219 -17 210 0 234 2 258 19 15 10 36 21 47 24 24 8
71 -15 68 -31 -2 -9 255 -12 1062 -12 1052 0 1065 0 1085 20 11 11 30 20 43
20 12 0 39 9 60 20 20 11 37 18 37 15 0 -3 -17 -20 -37 -40 l-38 -34 723 -1
c462 0 729 4 742 10 48 24 57 28 87 34 17 4 37 14 44 22 13 16 39 19 39 4 0
-5 9 -10 21 -10 12 0 17 -4 14 -11 -4 -6 -12 -8 -19 -6 -16 6 -76 -19 -76 -32
0 -15 131 -10 137 6 7 17 24 17 21 1 -2 -10 76 -14 360 -16 l362 -2 0 619 0
620 -29 -9 c-16 -4 -32 -6 -35 -2 -3 3 -6 0 -6 -8 0 -10 -3 -10 -15 0 -12 10
-15 10 -15 -4 0 -19 -16 -22 -23 -3 -3 9 -12 8 -37 -6 -25 -14 -31 -14 -27 -3
3 8 -1 17 -9 20 -8 3 -14 1 -14 -4 0 -5 -10 1 -23 13 -13 12 -22 30 -21 39 2
10 -3 18 -10 18 -14 0 -52 140 -47 177 1 11 -1 23 -6 26 -7 4 -9 222 -2 222 1
0 3 18 4 40 3 53 16 115 24 115 12 0 10 44 -2 59 -7 9 -13 56 -14 125 -1 61
-3 140 -3 176 -2 80 9 160 21 160 5 0 8 3 7 8 -3 13 14 62 22 62 8 0 5 100 -4
139 -3 14 -11 29 -18 34 -9 6 -10 10 -2 13 13 5 7 44 -7 44 -4 0 -11 16 -15
35 -4 25 -12 35 -25 35 -10 0 -22 7 -27 16 -7 12 -11 4 -15 -31z m-377 -2685
c0 -5 -4 -10 -10 -10 -5 0 -10 5 -10 10 0 6 5 10 10 10 6 0 10 -4 10 -10z"/>
<path d="M738 2709 c-10 -5 -23 -20 -29 -32 l-10 -22 18 21 c10 12 27 26 38
32 11 6 16 11 10 11 -5 0 -18 -4 -27 -10z"/>
<path d="M1072 2683 c-6 -15 -8 -31 -4 -35 5 -5 13 7 19 27 13 41 3 47 -15 8z"/>
<path d="M966 2664 c-4 -9 -4 -19 -1 -22 2 -3 7 3 11 12 4 9 4 19 1 22 -2 3
-7 -3 -11 -12z"/>
<path d="M1130 2670 c0 -8 -12 -27 -27 -43 -22 -23 -23 -27 -8 -19 24 12 52
59 42 69 -4 3 -7 0 -7 -7z"/>
<path d="M841 2634 c0 -11 3 -14 6 -6 3 7 2 16 -1 19 -3 4 -6 -2 -5 -13z"/>
<path d="M810 2625 c0 -8 2 -15 4 -15 2 0 6 7 10 15 3 8 1 15 -4 15 -6 0 -10
-7 -10 -15z"/>
<path d="M895 2629 c-4 -6 -5 -12 -2 -15 2 -3 7 2 10 11 7 17 1 20 -8 4z"/>
<path d="M1221 2624 c0 -11 3 -14 6 -6 3 7 2 16 -1 19 -3 4 -6 -2 -5 -13z"/>
<path d="M720 2615 c-14 -8 -20 -14 -14 -15 5 0 19 7 30 15 24 18 16 19 -16 0z"/>
<path d="M588 2609 c13 -5 20 -14 17 -20 -4 -6 -13 -8 -21 -5 -11 4 -14 -4
-14 -34 0 -40 0 -40 39 -40 34 0 38 3 34 20 -4 14 0 20 12 20 11 0 15 -5 11
-15 -3 -8 -1 -15 4 -15 12 0 13 87 1 94 -5 3 -8 0 -7 -7 0 -6 -3 -12 -9 -12
-5 0 -9 6 -9 13 1 8 -12 12 -40 11 -35 0 -38 -2 -18 -10z m52 -36 c0 -9 -45
-53 -54 -53 -3 0 -6 7 -6 15 0 8 7 15 15 15 8 0 15 7 15 15 0 8 7 15 15 15 8
0 15 -3 15 -7z"/>
<path d="M4382 2178 c2 -15 10 -23 23 -23 30 0 27 39 -3 43 -20 3 -23 0 -20
-20z"/>
<path d="M5345 1260 c-3 -5 -1 -10 4 -10 6 0 11 5 11 10 0 6 -2 10 -4 10 -3 0
-8 -4 -11 -10z"/>
<path d="M1260 785 l0 -195 270 0 270 0 0 195 0 195 -270 0 -270 0 0 -195z
m298 -17 c17 -17 15 -73 -3 -88 -38 -32 -80 30 -50 76 17 26 35 30 53 12z"/>
<path d="M1517 753 c-12 -11 -7 -50 7 -62 12 -10 17 -8 26 9 19 35 -8 79 -33
53z"/>
<path d="M3560 785 l0 -195 270 0 270 0 0 195 0 195 -270 0 -270 0 0 -195z
m291 -15 c22 -12 27 -68 7 -88 -43 -43 -93 34 -51 80 19 21 19 21 44 8z"/>
<path d="M3817 753 c-12 -11 -8 -50 6 -62 19 -15 27 -4 27 36 0 31 -16 44 -33
26z"/>
<path d="M4450 20 c0 -7 -7 -10 -15 -6 -8 3 -15 1 -15 -4 0 -6 11 -10 25 -10
25 0 33 14 15 25 -5 3 -10 1 -10 -5z"/>
</g>
</svg>
