<svg data-v-fde0c5aa="" xmlns="http://www.w3.org/2000/svg" viewBox="0 0 300 300" class="iconAbove"><!----><defs data-v-fde0c5aa=""><!----></defs><rect data-v-fde0c5aa="" fill="transparent" x="0" y="0" width="300px" height="300px" class="logo-background-square"></rect><defs data-v-fde0c5aa=""><!----></defs><g data-v-fde0c5aa="" id="a480c79b-ba6f-4647-a435-828dcf184c32" fill="#fff" transform="matrix(2.8656452152564675,0,0,2.8656452152564675,18.59583381719541,178.42907554498814)"><path d="M0.49 10.50L4.40 10.50L4.40 10.09C3.18 10.01 3.14 9.98 3.14 9.20L3.14 5.73L8.04 5.73L8.04 9.20C8.04 9.98 8.01 10.01 6.78 10.09L6.78 10.50L10.68 10.50L10.68 10.09C9.46 10.01 9.42 9.98 9.42 9.20L9.42 2.11C9.42 1.33 9.46 1.30 10.68 1.22L10.68 0.81L6.78 0.81L6.78 1.22C8.01 1.30 8.04 1.33 8.04 2.11L8.04 5.19L3.14 5.19L3.14 2.11C3.14 1.33 3.18 1.30 4.40 1.22L4.40 0.81L0.49 0.81L0.49 1.22C1.72 1.30 1.75 1.33 1.75 2.11L1.75 9.20C1.75 9.98 1.72 10.01 0.49 10.09ZM11.86 7.07C11.86 9.34 12.96 10.67 15.22 10.67C17.47 10.67 18.58 9.34 18.58 7.07C18.58 4.80 17.47 3.47 15.22 3.47C12.96 3.47 11.86 4.80 11.86 7.07ZM13.31 7.07C13.31 5.14 13.93 3.96 15.22 3.96C16.51 3.96 17.12 5.14 17.12 7.07C17.12 9.00 16.51 10.18 15.22 10.18C13.93 10.18 13.31 9.00 13.31 7.07ZM19.53 10.50L22.95 10.50L22.95 10.09C21.95 10.02 21.90 10.00 21.90 9.28L21.90 0.20L21.80 0.11L19.60 0.46L19.60 0.81L20.13 0.87C20.50 0.91 20.58 0.98 20.58 1.51L20.58 9.28C20.58 10.00 20.54 10.02 19.53 10.09ZM23.44 10.50L26.85 10.50L26.85 10.09C25.86 10.02 25.80 10.00 25.80 9.28L25.80 0.20L25.70 0.11L23.51 0.46L23.51 0.81L24.04 0.87C24.40 0.91 24.49 0.98 24.49 1.51L24.49 9.28C24.49 10.00 24.44 10.02 23.44 10.09ZM28.35 1.34C28.35 1.85 28.70 2.20 29.20 2.20C29.71 2.20 30.06 1.85 30.06 1.34C30.06 0.84 29.71 0.49 29.20 0.49C28.70 0.49 28.35 0.84 28.35 1.34ZM27.51 10.50L30.93 10.50L30.93 10.09C29.93 10.02 29.88 10.00 29.88 9.28L29.88 3.56L29.78 3.47L27.58 3.82L27.58 4.17L28.11 4.24C28.48 4.30 28.56 4.37 28.56 4.87L28.56 9.28C28.56 10.00 28.52 10.02 27.51 10.09ZM31.58 10.50L35.00 10.50L35.00 10.09C34.01 10.02 33.95 10.00 33.95 9.28L33.95 6.01C33.95 5.66 33.98 5.46 34.09 5.24C34.38 4.69 35.01 4.23 35.76 4.23C36.71 4.23 37.23 4.76 37.23 5.98L37.23 9.28C37.23 10.00 37.18 10.02 36.18 10.09L36.18 10.50L39.59 10.50L39.59 10.09C38.60 10.02 38.54 10.00 38.54 9.28L38.54 5.70C38.54 4.28 37.77 3.47 36.48 3.47C35.45 3.47 34.80 3.98 33.94 4.54L33.74 3.47L31.65 3.82L31.65 4.17L32.19 4.24C32.55 4.30 32.63 4.37 32.63 4.87L32.63 9.28C32.63 10.00 32.59 10.02 31.58 10.09ZM40.46 8.16L40.60 10.00C41.10 10.44 41.96 10.67 42.78 10.67C44.45 10.67 45.40 9.79 45.40 8.60C45.40 7.36 44.65 6.80 43.20 6.36C42.63 6.17 41.71 5.88 41.71 5.10C41.71 4.37 42.27 3.96 42.97 3.96C43.96 3.96 44.44 4.73 44.53 5.59L44.94 5.59L44.94 3.95C44.48 3.61 43.76 3.47 43.13 3.47C41.62 3.47 40.59 4.19 40.59 5.52C40.59 6.68 41.54 7.20 42.70 7.55C43.33 7.74 44.21 8.06 44.21 9.02C44.21 9.73 43.65 10.18 42.91 10.18C41.78 10.18 41.15 9.35 40.87 8.16ZM49.55 10.50L53.91 10.50C58.21 10.50 59.29 7.99 59.29 5.49C59.29 3.19 58.27 0.81 54.19 0.81L49.55 0.81L49.55 1.22C50.78 1.30 50.81 1.33 50.81 2.11L50.81 9.20C50.81 9.98 50.78 10.01 49.55 10.09ZM52.19 8.75L52.19 2.10C52.19 1.37 52.32 1.30 53.82 1.30C56.78 1.30 57.72 3.18 57.72 5.54C57.72 9.07 56.00 10.01 53.65 10.01C52.43 10.01 52.19 9.86 52.19 8.75ZM61.25 1.34C61.25 1.85 61.60 2.20 62.10 2.20C62.61 2.20 62.96 1.85 62.96 1.34C62.96 0.84 62.61 0.49 62.10 0.49C61.60 0.49 61.25 0.84 61.25 1.34ZM60.41 10.50L63.83 10.50L63.83 10.09C62.83 10.02 62.78 10.00 62.78 9.28L62.78 3.56L62.68 3.47L60.48 3.82L60.48 4.17L61.01 4.24C61.38 4.30 61.46 4.37 61.46 4.87L61.46 9.28C61.46 10.00 61.42 10.02 60.41 10.09ZM64.62 11.84C64.62 13.26 66.02 13.89 67.65 13.89C68.49 13.89 69.37 13.72 70.04 13.31C70.69 12.92 71.15 12.26 71.15 11.40C71.15 9.88 69.94 9.35 68.45 9.35L67.33 9.35C66.32 9.35 66.16 9.02 66.16 8.75C66.16 8.34 66.70 8.12 66.88 8.06C67.14 8.09 67.44 8.11 67.59 8.11C68.92 8.11 70.42 7.52 70.42 5.82C70.42 5.24 70.24 4.75 70.00 4.51L71.11 4.34L71.39 3.46L71.27 3.33L69.48 3.91C69.09 3.64 68.32 3.47 67.68 3.47C65.53 3.47 64.78 4.79 64.78 5.82C64.78 7.14 65.65 7.74 66.29 7.91L66.29 7.94C65.53 8.23 65.00 8.64 65.00 9.18C65.00 9.67 65.56 10.21 66.23 10.28L66.23 10.30C65.63 10.50 64.62 10.84 64.62 11.84ZM65.95 11.77C65.95 11.30 66.09 10.95 66.39 10.72C66.70 10.49 67.16 10.40 67.83 10.40C69.06 10.40 69.97 10.70 69.97 11.75C69.97 12.87 68.96 13.40 67.97 13.40C66.78 13.40 65.95 12.78 65.95 11.77ZM66.21 5.82C66.21 4.44 66.93 3.96 67.68 3.96C68.36 3.96 69.08 4.47 69.08 5.82C69.08 7 68.46 7.62 67.65 7.62C66.86 7.62 66.21 7 66.21 5.82ZM72.60 1.34C72.60 1.85 72.95 2.20 73.46 2.20C73.96 2.20 74.31 1.85 74.31 1.34C74.31 0.84 73.96 0.49 73.46 0.49C72.95 0.49 72.60 0.84 72.60 1.34ZM71.76 10.50L75.18 10.50L75.18 10.09C74.19 10.02 74.13 10.00 74.13 9.28L74.13 3.56L74.03 3.47L71.83 3.82L71.83 4.17L72.37 4.24C72.73 4.30 72.81 4.37 72.81 4.87L72.81 9.28C72.81 10.00 72.77 10.02 71.76 10.09ZM75.82 4.20L76.83 4.20L76.83 9.07C76.83 10.50 77.90 10.67 78.39 10.67C79.10 10.67 79.77 10.30 80.18 10.05L80.07 9.76C79.73 9.90 79.42 9.94 79.07 9.94C78.60 9.94 78.15 9.60 78.15 8.54L78.15 4.20L79.95 4.20L79.95 3.64L78.15 3.64L78.15 1.88L77.74 1.88L76.89 3.64L75.82 3.64ZM80.89 8.68C80.89 9.73 81.59 10.67 82.91 10.67C83.72 10.67 84.55 10.12 84.99 9.83C85.19 10.35 85.41 10.67 85.90 10.67C86.42 10.67 87.02 10.51 87.56 10.25L87.47 9.91C87.28 9.95 86.97 9.98 86.76 9.93C86.51 9.87 86.27 9.60 86.27 8.72L86.27 5.33C86.27 4.52 86.09 3.47 83.97 3.47C82.39 3.47 81.14 4.30 81.14 5.07C81.14 5.52 81.66 5.73 81.93 5.73C82.22 5.73 82.31 5.57 82.38 5.33C82.68 4.30 83.26 3.96 83.82 3.96C84.36 3.96 85.01 4.24 85.01 5.36L85.01 5.95C84.66 6.31 83.30 6.66 82.19 7.01C81.19 7.32 80.89 8.02 80.89 8.68ZM82.31 8.48C82.31 7.83 82.61 7.49 83.40 7.20C83.96 6.99 84.70 6.72 85.01 6.52L85.01 8.50C85.01 9.63 84.14 9.93 83.59 9.93C82.73 9.93 82.31 9.31 82.31 8.48ZM87.81 10.50L91.22 10.50L91.22 10.09C90.23 10.02 90.17 10.00 90.17 9.28L90.17 0.20L90.08 0.11L87.88 0.46L87.88 0.81L88.41 0.87C88.77 0.91 88.86 0.98 88.86 1.51L88.86 9.28C88.86 10.00 88.82 10.02 87.81 10.09Z"></path></g><defs data-v-fde0c5aa=""><!----></defs><g data-v-fde0c5aa="" id="153ec33f-1644-4e3d-bcce-f38f8ce2e31b" stroke="none" fill="#6c6ce5" transform="matrix(1.2340185323098918,0,0,1.2340185323098918,110.51140696608346,81.7671104491252)"><path d="M32 64c17.673 0 32-14.327 32-32S49.673 0 32 0 0 14.327 0 32s14.327 32 32 32zm6.82-26.542l12.032-5.156v-.065L38.82 27.08v-3.437l15.566 7.135v2.982L38.82 40.895v-3.437zM33.663 18.68h3.275l-6.94 23.512h-3.275l6.94-23.512zM8.754 30.874l15.566-7.231v3.437l-11.772 5.156v.065l11.772 5.156v3.437L8.754 33.663v-2.789z"></path></g><!----></svg>